<svg width="154" height="114" viewBox="0 0 154 114" fill="none" xmlns="http://www.w3.org/2000/svg">
<path d="M112.875 32.3808V28.8125C112.875 12.7456 88.6402 0.625 56.5 0.625C24.3598 0.625 0.125 12.7456 0.125 28.8125V54.4375C0.125 67.8202 16.9414 78.4545 41.125 81.6384V85.1875C41.125 101.254 65.3598 113.375 97.5 113.375C129.64 113.375 153.875 101.254 153.875 85.1875V59.5625C153.875 46.3016 137.59 35.6544 112.875 32.3808ZM143.625 59.5625C143.625 68.0316 123.9 77.5 97.5 77.5C95.1105 77.5 92.7402 77.4167 90.4019 77.263C104.22 72.2277 112.875 64.0469 112.875 54.4375V42.7397C132.01 45.5905 143.625 53.3292 143.625 59.5625ZM41.125 71.2539V56.0134C46.223 56.6777 51.359 57.0073 56.5 57C61.641 57.0073 66.777 56.6777 71.875 56.0134V71.2539C66.7846 72.0059 61.6456 72.3806 56.5 72.375C51.3544 72.3806 46.2154 72.0059 41.125 71.2539ZM102.625 45.4239V54.4375C102.625 59.8123 94.6748 65.5844 82.125 69.0886V54.1172C90.3955 52.112 97.3975 49.1267 102.625 45.4239ZM56.5 10.875C82.9002 10.875 102.625 20.3434 102.625 28.8125C102.625 37.2816 82.9002 46.75 56.5 46.75C30.0998 46.75 10.375 37.2816 10.375 28.8125C10.375 20.3434 30.0998 10.875 56.5 10.875ZM10.375 54.4375V45.4239C15.6025 49.1267 22.6045 52.112 30.875 54.1172V69.0886C18.3252 65.5844 10.375 59.8123 10.375 54.4375ZM51.375 85.1875V82.5161C53.0598 82.5802 54.7639 82.625 56.5 82.625C58.9856 82.625 61.4136 82.5417 63.7967 82.4008C66.4442 83.3485 69.1408 84.1526 71.875 84.8095V99.8386C59.3252 96.3344 51.375 90.5623 51.375 85.1875ZM82.125 102.004V86.725C87.2213 87.4101 92.3578 87.7525 97.5 87.75C102.641 87.7573 107.777 87.4277 112.875 86.7634V102.004C102.679 103.499 92.3205 103.499 82.125 102.004ZM123.125 99.8386V84.8672C131.395 82.862 138.398 79.8767 143.625 76.1739V85.1875C143.625 90.5623 135.675 96.3344 123.125 99.8386Z" fill="white" fill-opacity="0.2"/>
</svg>
