<svg width="36" height="36" viewBox="0 0 36 36" fill="none" xmlns="http://www.w3.org/2000/svg">
<rect width="36" height="36" fill="white"/>
<path d="M26 25.125C26.0699 25.2178 26.1125 25.3283 26.123 25.444C26.1336 25.5598 26.1116 25.6761 26.0597 25.7801C26.0078 25.884 25.9279 25.9715 25.829 26.0325C25.7301 26.0936 25.6162 26.1259 25.5 26.1258H10.5C10.3839 26.1258 10.2702 26.0934 10.1714 26.0324C10.0727 25.9714 9.99289 25.8841 9.94098 25.7803C9.88908 25.6764 9.8671 25.5602 9.87753 25.4446C9.88795 25.329 9.93036 25.2186 10 25.1258C10.5534 24.3838 11.2914 23.7996 12.1406 23.4312C11.6751 23.0064 11.349 22.4507 11.205 21.8372C11.0609 21.2237 11.1058 20.5809 11.3336 19.9933C11.5614 19.4057 11.9616 18.9008 12.4816 18.5447C13.0016 18.1886 13.6171 17.998 14.2473 17.998C14.8775 17.998 15.493 18.1886 16.0129 18.5447C16.5329 18.9008 16.9331 19.4057 17.1609 19.9933C17.3887 20.5809 17.4336 21.2237 17.2896 21.8372C17.1456 22.4507 16.8194 23.0064 16.3539 23.4312C16.9666 23.696 17.5233 24.0749 17.9945 24.5476C18.4657 24.0749 19.0225 23.696 19.6352 23.4312C19.1697 23.0064 18.8435 22.4507 18.6995 21.8372C18.5555 21.2237 18.6003 20.5809 18.8281 19.9933C19.056 19.4057 19.4561 18.9008 19.9761 18.5447C20.4961 18.1886 21.1116 17.998 21.7418 17.998C22.372 17.998 22.9875 18.1886 23.5075 18.5447C24.0274 18.9008 24.4276 19.4057 24.6554 19.9933C24.8833 20.5809 24.9281 21.2237 24.7841 21.8372C24.6401 22.4507 24.3139 23.0064 23.8484 23.4312C24.7016 23.7976 25.4435 24.3817 26 25.125ZM10.125 17.8758C10.1907 17.925 10.2654 17.9608 10.3449 17.9812C10.4244 18.0016 10.5071 18.0061 10.5884 17.9945C10.6696 17.9829 10.7478 17.9554 10.8184 17.9136C10.8891 17.8717 10.9508 17.8164 11 17.7508C11.3784 17.2462 11.8691 16.8367 12.4332 16.5546C12.9973 16.2726 13.6193 16.1258 14.25 16.1258C14.8807 16.1258 15.5027 16.2726 16.0668 16.5546C16.6309 16.8367 17.1216 17.2462 17.5 17.7508C17.5582 17.8284 17.6337 17.8914 17.7205 17.9348C17.8073 17.9782 17.903 18.0008 18 18.0008C18.097 18.0008 18.1927 17.9782 18.2795 17.9348C18.3663 17.8914 18.4418 17.8284 18.5 17.7508C18.8784 17.2462 19.3691 16.8367 19.9332 16.5546C20.4973 16.2726 21.1193 16.1258 21.75 16.1258C22.3807 16.1258 23.0027 16.2726 23.5668 16.5546C24.1309 16.8367 24.6216 17.2462 25 17.7508C25.0493 17.8164 25.111 17.8717 25.1817 17.9135C25.2524 17.9553 25.3306 17.9828 25.4119 17.9944C25.4932 18.0059 25.5759 18.0014 25.6555 17.981C25.735 17.9605 25.8097 17.9247 25.8754 17.8754C25.9411 17.8261 25.9964 17.7643 26.0382 17.6937C26.08 17.623 26.1074 17.5448 26.119 17.4635C26.1306 17.3822 26.126 17.2994 26.1056 17.2199C26.0852 17.1404 26.0493 17.0656 26 17C25.4466 16.2582 24.7085 15.6743 23.8594 15.3062C24.3249 14.8814 24.651 14.3257 24.795 13.7122C24.9391 13.0987 24.8942 12.4559 24.6664 11.8683C24.4386 11.2807 24.0384 10.7758 23.5184 10.4197C22.9984 10.0636 22.3829 9.87305 21.7527 9.87305C21.1225 9.87305 20.507 10.0636 19.9871 10.4197C19.4671 10.7758 19.0669 11.2807 18.8391 11.8683C18.6113 12.4559 18.5664 13.0987 18.7104 13.7122C18.8544 14.3257 19.1806 14.8814 19.6461 15.3062C19.0334 15.5711 18.4767 15.9499 18.0055 16.4226C17.5343 15.9499 16.9775 15.5711 16.3648 15.3062C16.8303 14.8814 17.1565 14.3257 17.3005 13.7122C17.4445 13.0987 17.3997 12.4559 17.1719 11.8683C16.944 11.2807 16.5439 10.7758 16.0239 10.4197C15.5039 10.0636 14.8884 9.87305 14.2582 9.87305C13.628 9.87305 13.0125 10.0636 12.4925 10.4197C11.9726 10.7758 11.5724 11.2807 11.3446 11.8683C11.1167 12.4559 11.0719 13.0987 11.2159 13.7122C11.3599 14.3257 11.6861 14.8814 12.1516 15.3062C11.2984 15.6729 10.5564 16.2573 10 17.0008C9.95075 17.0664 9.91492 17.1411 9.89455 17.2206C9.87418 17.3002 9.86967 17.3829 9.88128 17.4641C9.89289 17.5454 9.92039 17.6236 9.9622 17.6942C10.004 17.7648 10.0593 17.8265 10.125 17.8758Z" fill="#0A1B1E"/>
</svg>
