<svg width="36" height="36" viewBox="0 0 36 36" fill="none" xmlns="http://www.w3.org/2000/svg">
<rect width="36" height="36" fill="white"/>
<path d="M24.25 14.25H15.5V12.375C15.5 11.712 15.7634 11.0761 16.2322 10.6072C16.7011 10.1384 17.337 9.875 18 9.875C19.2008 9.875 20.2812 10.7344 20.5125 11.8742C20.5468 12.0353 20.6433 12.1763 20.7811 12.2666C20.9188 12.3569 21.0866 12.3892 21.248 12.3565C21.4094 12.3237 21.5514 12.2286 21.643 12.0918C21.7347 11.955 21.7686 11.7875 21.7375 11.6258C21.3844 9.88672 19.8125 8.625 18 8.625C17.0058 8.62603 16.0525 9.02145 15.3495 9.72449C14.6465 10.4275 14.251 11.3808 14.25 12.375V14.25H11.75C11.4185 14.25 11.1005 14.3817 10.8661 14.6161C10.6317 14.8505 10.5 15.1685 10.5 15.5V24.25C10.5 24.5815 10.6317 24.8995 10.8661 25.1339C11.1005 25.3683 11.4185 25.5 11.75 25.5H24.25C24.5815 25.5 24.8995 25.3683 25.1339 25.1339C25.3683 24.8995 25.5 24.5815 25.5 24.25V15.5C25.5 15.1685 25.3683 14.8505 25.1339 14.6161C24.8995 14.3817 24.5815 14.25 24.25 14.25ZM18.625 20.393V22.375C18.625 22.5408 18.5592 22.6997 18.4419 22.8169C18.3247 22.9342 18.1658 23 18 23C17.8342 23 17.6753 22.9342 17.5581 22.8169C17.4408 22.6997 17.375 22.5408 17.375 22.375V20.393C16.958 20.2455 16.6065 19.9554 16.3827 19.5739C16.1589 19.1924 16.0772 18.7441 16.152 18.3081C16.2268 17.8722 16.4533 17.4767 16.7915 17.1917C17.1296 16.9066 17.5577 16.7502 18 16.7502C18.4423 16.7502 18.8704 16.9066 19.2085 17.1917C19.5467 17.4767 19.7732 17.8722 19.848 18.3081C19.9228 18.7441 19.8411 19.1924 19.6173 19.5739C19.3935 19.9554 19.042 20.2455 18.625 20.393Z" fill="#0A1B1E"/>
</svg>
