<svg width="149" height="149" viewBox="0 0 149 149" fill="none" xmlns="http://www.w3.org/2000/svg">
<path d="M116.575 77.6791L83.5125 65.5072L71.3406 32.4189C70.6198 30.4607 69.3157 28.7707 67.6042 27.577C65.8927 26.3832 63.8563 25.7432 61.7696 25.7432C59.683 25.7432 57.6465 26.3832 55.9351 27.577C54.2236 28.7707 52.9195 30.4607 52.1987 32.4189L40.014 65.4688L6.92573 77.6406C4.96753 78.3614 3.27754 79.6655 2.0838 81.377C0.890052 83.0885 0.25 85.1249 0.25 87.2116C0.25 89.2982 0.890052 91.3347 2.0838 93.0461C3.27754 94.7576 4.96753 96.0617 6.92573 96.7825L39.9692 109.031L52.141 142.1C52.8619 144.059 54.166 145.749 55.8774 146.942C57.5889 148.136 59.6253 148.776 61.712 148.776C63.7986 148.776 65.8351 148.136 67.5465 146.942C69.258 145.749 70.5621 144.059 71.2829 142.1L83.4548 109.038L116.543 96.8658C118.501 96.145 120.191 94.8409 121.385 93.1294C122.579 91.4179 123.219 89.3815 123.219 87.2948C123.219 85.2082 122.579 83.1718 121.385 81.4603C120.191 79.7488 118.501 78.4447 116.543 77.7239L116.575 77.6791ZM79.9378 99.4219C78.5528 99.9302 77.2951 100.734 76.2519 101.777C75.2087 102.82 74.405 104.078 73.8967 105.463L61.7248 138.43L49.5785 105.437C49.0698 104.06 48.2687 102.809 47.2302 101.77C46.1918 100.732 44.9407 99.9306 43.5631 99.4219L10.5965 87.25L43.5631 75.0781C44.9407 74.5694 46.1918 73.7683 47.2302 72.7298C48.2687 71.6914 49.0698 70.4403 49.5785 69.0627L61.7504 36.0961L73.9223 69.0627C74.4306 70.4476 75.2343 71.7054 76.2775 72.7486C77.3207 73.7918 78.5784 74.5954 79.9634 75.1038L112.93 87.2756L79.9378 99.4219ZM82.2504 20.625C82.2504 19.2658 82.7904 17.9622 83.7515 17.0011C84.7126 16.04 86.0162 15.5 87.3754 15.5H97.6254V5.25C97.6254 3.89077 98.1654 2.5872 99.1265 1.62608C100.088 0.664954 101.391 0.125 102.75 0.125C104.11 0.125 105.413 0.664954 106.374 1.62608C107.335 2.5872 107.875 3.89077 107.875 5.25V15.5H118.125C119.485 15.5 120.788 16.04 121.749 17.0011C122.71 17.9622 123.25 19.2658 123.25 20.625C123.25 21.9842 122.71 23.2878 121.749 24.2489C120.788 25.21 119.485 25.75 118.125 25.75H107.875V36C107.875 37.3592 107.335 38.6628 106.374 39.6239C105.413 40.585 104.11 41.125 102.75 41.125C101.391 41.125 100.088 40.585 99.1265 39.6239C98.1654 38.6628 97.6254 37.3592 97.6254 36V25.75H87.3754C86.0162 25.75 84.7126 25.21 83.7515 24.2489C82.7904 23.2878 82.2504 21.9842 82.2504 20.625ZM148.875 51.375C148.875 52.7342 148.335 54.0378 147.374 54.9989C146.413 55.96 145.11 56.5 143.75 56.5H138.625V61.625C138.625 62.9842 138.085 64.2878 137.124 65.2489C136.163 66.21 134.86 66.75 133.5 66.75C132.141 66.75 130.838 66.21 129.876 65.2489C128.915 64.2878 128.375 62.9842 128.375 61.625V56.5H123.25C121.891 56.5 120.588 55.96 119.626 54.9989C118.665 54.0378 118.125 52.7342 118.125 51.375C118.125 50.0158 118.665 48.7122 119.626 47.7511C120.588 46.79 121.891 46.25 123.25 46.25H128.375V41.125C128.375 39.7658 128.915 38.4622 129.876 37.5011C130.838 36.54 132.141 36 133.5 36C134.86 36 136.163 36.54 137.124 37.5011C138.085 38.4622 138.625 39.7658 138.625 41.125V46.25H143.75C145.11 46.25 146.413 46.79 147.374 47.7511C148.335 48.7122 148.875 50.0158 148.875 51.375Z" fill="white" fill-opacity="0.2"/>
</svg>
